<svg version="1.1" id="Layer_1" xmlns="http://www.w3.org/2000/svg" xmlns:xlink="http://www.w3.org/1999/xlink" x="0px" y="0px"
	 width="100%" viewBox="0 0 1024 1024" enable-background="new 0 0 1024 1024" xml:space="preserve">
  <defs>
    <linearGradient id="acg-gradient" x1="0%" y1="0%" x2="100%" y2="100%">
      <stop offset="0%" stop-color="#1a3a63" />
      <stop offset="50%" stop-color="#245494" />
      <stop offset="100%" stop-color="#1a3a63" />
    </linearGradient>
  </defs>
<path fill="url(#acg-gradient)" opacity="1.000000" stroke="none" 
	d="
M542.527222,209.384155 
	C571.546509,211.712311 599.266846,217.734711 625.773987,228.707428 
	C650.213257,238.824158 672.765808,252.134445 693.603943,268.563507 
	C703.295227,276.204163 712.995789,283.764282 721.679443,292.508545 
	C747.845642,318.857269 767.789062,349.289825 781.064514,384.024170 
	C782.132446,386.818298 783.168213,389.627075 784.124023,392.461029 
	C785.228455,395.735901 783.967102,397.945282 780.562012,397.999359 
	C769.567871,398.174042 758.535400,398.586212 747.586792,397.861938 
	C742.043152,397.495239 739.182617,392.295715 737.140930,387.439423 
	C731.566650,374.180450 724.514221,361.743500 716.595947,349.773041 
	C695.430237,317.776062 667.508057,293.374634 633.151917,276.488251 
	C609.461487,264.844238 584.724976,256.014374 558.413513,252.525894 
	C539.722900,250.047821 521.010437,249.701004 502.134949,251.755539 
	C474.642578,254.747986 448.515198,262.113495 423.870911,274.376862 
	C373.456665,299.463776 337.005127,338.035248 314.131104,389.505646 
	C299.462311,422.512878 292.666290,457.083618 294.553650,493.077393 
	C296.498260,530.163452 305.959625,565.223328 324.834045,597.601318 
	C344.673218,631.634399 370.319458,660.033081 404.194550,680.372192 
	C434.007263,698.272278 466.301483,708.762939 501.120636,712.111328 
	C556.648438,717.451233 607.212341,704.043701 653.310913,673.325378 
	C691.595276,647.814270 719.773010,613.619751 737.793823,571.274109 
	C742.930054,559.204956 747.456116,546.839050 750.198914,533.922424 
	C751.642517,527.123840 751.292603,526.540588 744.506775,525.792114 
	C734.517639,524.690430 724.536438,525.877930 714.551819,525.884094 
	C659.722839,525.918274 604.893616,525.805542 550.064941,525.929260 
	C536.750488,525.959290 538.654053,524.177063 533.996277,537.097473 
	C528.971924,551.034912 523.649719,564.865234 518.422546,578.729126 
	C515.252441,587.137085 512.440308,589.076416 503.520264,589.072205 
	C478.521973,589.060486 453.523712,589.031738 428.525421,589.005432 
	C426.692322,589.003540 424.852875,589.059387 423.027344,588.931885 
	C415.461365,588.403381 412.258820,583.729980 414.890411,576.631470 
	C418.593231,566.643250 422.543915,556.746643 426.420135,546.823120 
	C442.707184,505.126404 459.205536,463.510681 475.216248,421.708160 
	C483.247131,400.740143 491.721741,379.956512 499.989868,359.087311 
	C503.600616,349.973694 507.275848,340.885376 510.968414,331.804535 
	C512.759338,327.400146 516.109863,325.618347 520.843628,325.761047 
	C527.837891,325.971863 534.851440,325.676971 541.836548,326.015930 
	C548.347595,326.331909 553.105164,328.697845 555.788330,335.736145 
	C570.727966,374.924744 586.132446,413.936218 601.404358,452.997864 
	C602.616394,456.098022 604.054199,459.109222 605.342346,462.180542 
	C606.879456,465.844971 605.453613,468.375732 601.740723,468.661560 
	C592.107727,469.403076 582.399719,469.685516 572.804749,468.592255 
	C568.449585,468.096069 565.829834,464.257812 564.302917,460.204285 
	C558.143799,443.853302 552.056213,427.475220 545.977539,411.094025 
	C542.502502,401.729309 539.105042,392.335846 535.643738,382.965973 
	C535.251648,381.904541 534.989136,380.698334 533.690247,380.111633 
	C531.314697,380.293304 531.161438,382.456116 530.565063,384.031067 
	C519.545410,413.130920 508.642212,442.275024 497.587585,471.361542 
	C487.951141,496.716614 478.157135,522.011780 468.432709,547.333435 
	C468.313263,547.644592 468.190430,547.954468 468.074402,548.266907 
	C465.267822,555.824829 466.064453,556.936584 474.137604,556.702881 
	C475.635834,556.659424 477.133636,556.508179 478.630402,556.524109 
	C488.205811,556.625793 488.661621,556.139160 491.843964,547.324158 
	C498.625183,528.540405 505.603088,509.827698 512.493408,491.083252 
	C514.123291,486.649353 517.145508,484.620544 522.000061,484.608215 
	C556.490112,484.520630 590.988037,483.734985 625.467773,484.241150 
	C677.625061,485.006775 729.777100,484.809174 781.932495,484.756165 
	C784.253540,484.753815 786.578674,484.603882 788.855408,485.408997 
	C798.413208,488.788757 800.271545,491.671722 799.181885,501.834869 
	C794.914429,541.636597 784.745605,579.667114 764.931641,614.737061 
	C739.485779,659.775574 704.176514,695.036316 659.033997,720.251953 
	C631.000854,735.910706 600.970398,746.507446 569.187073,750.877258 
	C490.195526,761.737488 418.913818,743.038269 356.076508,693.422852 
	C321.147461,665.843323 294.388611,631.737793 276.254395,591.235840 
	C266.882874,570.304932 260.284607,548.357300 256.224945,525.541992 
	C250.273438,492.094482 250.759949,458.847534 257.136810,425.753754 
	C262.619629,397.299713 273.135651,370.512146 287.670593,345.346375 
	C309.124969,308.200317 337.798279,277.727814 373.238739,253.791595 
	C403.555328,233.316025 436.870148,219.928619 473.013428,213.459763 
	C490.624298,210.307770 508.327026,208.833237 526.133911,208.232452 
	C531.429138,208.053802 536.759705,208.919968 542.527222,209.384155 
z"/>
<path fill="url(#acg-gradient)" opacity="1.000000" stroke="none" 
	d="
M688.887573,614.879333 
	C664.835632,644.384949 635.028931,665.191772 599.788818,678.399414 
	C563.973145,691.822693 527.097351,694.646484 489.695282,687.997070 
	C454.484497,681.737244 423.129913,666.613098 395.113373,644.210693 
	C371.162170,625.058960 352.139282,602.068237 338.081879,574.917480 
	C328.449738,556.313599 322.296356,536.578247 318.408569,515.970215 
	C316.230164,504.423431 315.267822,492.783173 315.214722,481.227142 
	C315.128326,462.437775 317.041260,443.752014 322.015991,425.415710 
	C333.317963,383.757599 355.771271,349.211945 388.140137,321.089813 
	C414.967102,297.782471 446.274750,283.280426 480.943420,275.711517 
	C500.977722,271.337677 521.238098,270.037231 541.511597,272.023163 
	C560.239319,273.857697 578.607483,278.032623 596.392029,284.542358 
	C618.533630,292.646942 637.977905,305.327515 656.864868,319.106232 
	C671.941101,330.104889 684.798096,343.203705 695.797119,358.235199 
	C702.998901,368.077087 709.436462,378.370911 714.753723,389.334473 
	C717.960510,395.946594 716.519165,398.110779 709.165955,398.172791 
	C700.334473,398.247314 691.488708,397.909393 682.674255,398.306946 
	C675.627075,398.624817 670.942688,395.477295 667.376648,389.905823 
	C655.856140,371.906281 642.010193,355.962311 624.405945,343.744293 
	C603.597595,329.302551 580.307434,320.689209 555.483154,315.908325 
	C539.093018,312.751770 522.409851,312.710266 506.217041,314.717163 
	C474.441315,318.655487 445.503662,330.751343 420.469330,351.189972 
	C392.819519,373.764008 373.853149,402.353729 363.920837,436.496155 
	C357.642578,458.077881 356.601227,480.400177 359.001221,502.819824 
	C361.466675,525.850952 368.692139,547.342529 380.330475,567.264832 
	C401.958496,604.287354 432.672089,630.185730 474.060425,642.810364 
	C502.067047,651.353088 530.595337,652.887268 558.936829,646.322083 
	C600.240112,636.754272 634.436035,615.374390 659.724915,580.734863 
	C664.246521,574.541443 668.680054,568.310059 672.160889,561.444946 
	C673.826782,558.159302 676.640198,556.697693 680.324951,556.715881 
	C690.323181,556.765137 700.322144,556.716309 710.319824,556.807312 
	C711.950073,556.822144 713.653015,557.133911 715.189209,557.681824 
	C720.341309,559.519287 721.244690,561.277405 718.974304,566.332275 
	C711.158813,583.732788 701.426819,599.976746 688.887573,614.879333 
z"/>
<path fill="url(#acg-gradient)" opacity="1.000000" stroke="none" 
	d="
M587.923828,552.037476 
	C587.575562,551.228149 587.357239,550.777893 587.176941,550.312988 
	C584.328003,542.969788 585.121582,541.748718 592.813538,541.716431 
	C600.136292,541.685669 607.459167,541.660522 614.781921,541.674072 
	C622.971130,541.689209 626.252930,543.797363 629.143555,551.254150 
	C633.110107,561.486816 636.834778,571.813599 640.839355,582.031006 
	C642.401062,586.015503 640.965210,587.921692 637.098328,587.975159 
	C627.448975,588.108459 617.785217,588.240845 608.149109,587.843506 
	C603.620361,587.656677 600.144104,585.142090 598.473633,580.449829 
	C595.128357,571.053040 591.552307,561.738342 587.923828,552.037476 
z"/>
</svg>
